<svg width="26" height="26" viewBox="0 0 26 26" fill="none" xmlns="http://www.w3.org/2000/svg">
<g clip-path="url(#clip0_157_1358)">
<path d="M21.2984 4.32248C18.4384 2.37248 14.9067 3.28248 13 5.51414C11.0934 3.28248 7.56169 2.36164 4.70169 4.32248C3.18503 5.36248 2.23169 7.11748 2.16669 8.96998C2.01503 13.1733 5.74169 16.5425 11.4292 21.71L11.5375 21.8075C12.3609 22.555 13.6284 22.555 14.4517 21.7966L14.5709 21.6883C20.2584 16.5316 23.9742 13.1625 23.8334 8.95914C23.7684 7.11748 22.815 5.36248 21.2984 4.32248ZM13.1084 20.0958L13 20.2041L12.8917 20.0958C7.73503 15.4266 4.33336 12.3391 4.33336 9.20831C4.33336 7.04164 5.95836 5.41664 8.12503 5.41664C9.79336 5.41664 11.4184 6.48914 11.9925 7.97331H14.0184C14.5817 6.48914 16.2067 5.41664 17.875 5.41664C20.0417 5.41664 21.6667 7.04164 21.6667 9.20831C21.6667 12.3391 18.265 15.4266 13.1084 20.0958Z" fill="#D6DBDE"/>
</g>
<defs>
<clipPath id="clip0_157_1358">
<rect width="26" height="26" fill="white"/>
</clipPath>
</defs>
</svg>
