<svg width="12" height="12" viewBox="0 0 12 12" fill="none" xmlns="http://www.w3.org/2000/svg">
<g clip-path="url(#clip0_84_581)">
<path d="M0.935309 0.63723C0.721606 0.963176 0.668919 1.36356 0.751489 1.82593C0.849927 2.37732 1.14782 2.9987 1.57836 3.58375C2.4395 4.75386 3.82954 5.76536 5.06617 5.91871L5.15261 5.92972L5.20827 5.99638L9.75878 11.4895C10.2123 11.5979 10.5052 11.5304 10.6575 11.3796C10.8109 11.2277 10.8817 10.9342 10.768 10.4685L0.935356 0.637207L0.935309 0.63723ZM9.72587 0.691418L7.1829 3.23439C6.90165 3.51559 6.89922 3.82501 7.04443 4.1631L7.1045 4.30302L6.99463 4.40849L6.14064 5.22292L6.83425 5.9165L7.64504 5.06029L7.75051 4.94896L7.89039 5.00975C8.24582 5.16292 8.58287 5.15664 8.84401 4.8955L11.387 2.35253L11.0567 2.0222L9.40283 3.67529L9.09376 3.36552L10.7468 1.71247L10.3945 1.36009L8.7415 3.01318L8.43165 2.70339L10.0847 1.05034L9.72587 0.691418ZM4.94383 6.36477L0.598372 10.511C0.491145 10.9551 0.559841 11.2326 0.704591 11.376C0.849388 11.5194 1.12947 11.5852 1.56812 11.4792L5.62797 7.19094L4.94383 6.36477Z" fill="white"/>
</g>
<defs>
<clipPath id="clip0_84_581">
<rect width="12" height="12" fill="white"/>
</clipPath>
</defs>
</svg>
