<svg width="48" height="48" viewBox="0 0 48 48" fill="none" xmlns="http://www.w3.org/2000/svg">
<g clip-path="url(#clip0_17_2107)">
<rect width="48" height="48" rx="24" fill="white"/>
<path d="M16.6667 35.28L34.2133 24L16.6667 12.72V35.28ZM22.9333 49.0667C19.4658 49.0667 16.2071 48.4083 13.1573 47.0914C10.1076 45.7763 7.45467 43.9907 5.19867 41.7347C2.94267 39.4787 1.15708 36.8258 -0.15808 33.776C-1.47492 30.7262 -2.13333 27.4676 -2.13333 24C-2.13333 20.5325 -1.47492 17.2738 -0.15808 14.224C1.15708 11.1742 2.94267 8.52135 5.19867 6.26535C7.45467 4.00935 10.1076 2.22293 13.1573 0.906096C16.2071 -0.409068 19.4658 -1.06665 22.9333 -1.06665C26.4009 -1.06665 29.6596 -0.409068 32.7093 0.906096C35.7591 2.22293 38.412 4.00935 40.668 6.26535C42.924 8.52135 44.7096 11.1742 46.0247 14.224C47.3416 17.2738 48 20.5325 48 24C48 27.4676 47.3416 30.7262 46.0247 33.776C44.7096 36.8258 42.924 39.4787 40.668 41.7347C38.412 43.9907 35.7591 45.7763 32.7093 47.0914C29.6596 48.4083 26.4009 49.0667 22.9333 49.0667Z" fill="#9FC727"/>
</g>
<defs>
<clipPath id="clip0_17_2107">
<rect width="48" height="48" rx="24" fill="white"/>
</clipPath>
</defs>
</svg>
